<?xml version="1.0" encoding="UTF-8" standalone="no"?>
<!-- Created with Inkscape (http://www.inkscape.org/) -->

<svg
   width="256"
   height="128"
   viewBox="0 0 67.733332 33.866668"
   version="1.1"
   id="svg5"
   inkscape:version="1.1 (c68e22c387, 2021-05-23)"
   sodipodi:docname="wep_grav_gun.svg"
   xmlns:inkscape="http://www.inkscape.org/namespaces/inkscape"
   xmlns:sodipodi="http://sodipodi.sourceforge.net/DTD/sodipodi-0.dtd"
   xmlns="http://www.w3.org/2000/svg"
   xmlns:svg="http://www.w3.org/2000/svg">
  <sodipodi:namedview
     id="namedview7"
     pagecolor="#ffffff"
     bordercolor="#666666"
     borderopacity="1.0"
     inkscape:pageshadow="2"
     inkscape:pageopacity="0.0"
     inkscape:pagecheckerboard="0"
     inkscape:document-units="px"
     showgrid="false"
     units="px"
     width="256px"
     inkscape:zoom="3.1072952"
     inkscape:cx="108.93719"
     inkscape:cy="96.38608"
     inkscape:window-width="1848"
     inkscape:window-height="1057"
     inkscape:window-x="3832"
     inkscape:window-y="1058"
     inkscape:window-maximized="1"
     inkscape:current-layer="layer1" />
  <defs
     id="defs2" />
  <g
     inkscape:label="Layer 1"
     inkscape:groupmode="layer"
     id="layer1">
    <path
       style="fill:#000000;fill-opacity:1;stroke-width:1.05833;stroke-linejoin:bevel"
       id="path1034"
       d="m 5.0745595,6.7238816 c 1.3518047,0.079474 2.7045952,-0.055271 4.0541325,-0.1136222 0.5045255,-0.021815 1.009552,-0.029867 1.514328,-0.0448 0.540001,-0.00665 1.080196,-0.035858 1.620003,-0.019939 0.583936,0.017222 1.164589,0.101427 1.748506,0.11928 0.23172,0.00709 4.663667,-0.00538 4.682476,-0.00531 4.555889,0.016174 0.378539,0.052009 5.187625,-0.013137 5.64133,-0.1392928 11.26841,-0.5879997 16.893811,-1.0098257 2.906451,-0.1660784 5.825056,-0.3539717 8.73691,-0.215805 0.53549,0.008 1.058622,0.128269 1.588426,0.1852232 0.407797,0.018333 0.815644,-0.035062 1.221251,-0.071914 0.478872,-0.042732 0.949155,-0.1443313 1.42531,-0.2066018 0.587367,-0.081939 1.177687,-0.1317394 1.768523,-0.1796116 0.9922,-0.08463 1.988235,-0.082407 2.982835,-0.1103979 0.930709,-0.056547 1.855309,-0.1810541 2.785891,-0.2394961 0.309526,-0.014137 0.619427,-0.030882 0.929249,-0.037125 0.110468,0.036741 -0.02119,-0.1055129 -0.02897,-0.084593 -0.0205,0.05523 -0.0019,0.1180624 -0.0095,0.1764819 -0.02429,0.1864489 -0.05739,0.3716443 -0.08608,0.5574665 -0.609897,2.247487 -1.21066,4.498946 -1.91524,6.7190061 -0.161261,0.497943 -0.334412,0.99162 -0.528002,1.477839 -0.04097,0.102902 -0.103553,0.218835 -0.123907,0.33038 0.567089,-0.291479 1.140986,-0.570076 1.701268,-0.874438 0.01704,-0.0093 0.0099,-0.03757 0.01286,-0.05673 0.01061,-0.06853 -0.03936,-0.131888 -0.09188,-0.173594 -0.03842,-0.03051 -0.08539,-0.04831 -0.128085,-0.07246 -1.216544,-0.223945 -2.453238,-0.33328 -3.684667,-0.442523 -1.208051,-0.05148 -2.410233,-0.187441 -3.615532,-0.275163 -0.501766,-0.03652 -1.004408,-0.05988 -1.506503,-0.09157 -0.499784,-0.03154 -0.998992,-0.07278 -1.499132,-0.09809 -0.552764,-0.02798 -1.106178,-0.04119 -1.659268,-0.06179 -2.721052,-0.142022 -5.440429,0.05197 -8.158406,0.158258 -1.526315,0.05969 -3.052966,0.110531 -4.579393,0.167374 -3.649133,0.08628 -7.298962,0.126083 -10.949049,0.101879 -2.261564,-0.0047 -4.520699,-0.110175 -6.779614,-0.207337 -1.263444,-0.04529 -2.526305,-0.155531 -3.791307,-0.155854 -0.249454,-6.4e-5 -0.498761,0.01207 -0.748141,0.01811 -1.329275,0.02283 -2.648365,0.205429 -3.969469,0.337323 -0.7727886,0.068 -1.5467076,0.123864 -2.3225284,0.136237 -0.2002242,-0.01426 -0.4025535,-0.0053 -0.6025227,-0.0235 -0.00459,-0.0018 -0.012875,-5.56e-4 -0.013761,-0.0054 -0.00106,-0.0058 0.00602,-0.01854 0.010136,-0.01437 0.023545,0.02387 0.047737,0.11485 0.057262,0.0827 0.011832,-0.03993 -0.036007,-0.07553 -0.04753,-0.115546 -0.026483,-0.09197 -0.036121,-0.188529 -0.066191,-0.279391 C 7.0263966,11.797308 6.9464551,11.608668 6.8743527,11.417255 6.4421392,9.6941825 6.8526834,11.393971 6.4265841,9.3963955 6.3417896,8.9988747 6.2299505,8.6070805 6.1560934,8.2073831 6.0855983,7.8258815 6.1221992,7.4209925 5.993908,7.0548581 5.8897019,6.7574604 5.6481661,6.5279049 5.4752953,6.2644284 c 0,0 -0.07088,0.037094 -0.07088,0.037094 v 0 c -0.099527,0.406486 -0.2676287,0.8021111 -0.298581,1.219458 -0.029127,0.3927282 0.093047,0.7823949 0.120981,1.1752099 0.030839,0.433656 0.029376,0.8691023 0.055258,1.3030822 0.1296776,2.1743115 0.079166,0.2520065 0.1089914,2.1938775 -0.025659,0.240537 -0.055241,0.480688 -0.076975,0.721612 -0.00976,0.108176 -0.010835,0.216965 -0.017478,0.325376 -0.00463,0.07554 -0.029169,0.151871 -0.016333,0.226455 0.00861,0.05006 0.042384,0.09463 0.077852,0.130991 0.016933,0.01736 0.050052,-0.04254 0.070177,-0.01917 0.2604061,-0.02263 0.5203727,-0.04686 0.7785822,-0.08924 0.8778204,-0.1147 1.7539675,-0.242178 2.6317722,-0.357071 1.3502599,-0.183886 2.7041149,-0.358829 4.0660039,-0.42686 1.543654,-0.01706 3.085939,0.06798 4.629761,0.06538 0.496038,0.0018 1.510361,0.007 1.990413,0.0022 1.746571,-0.01755 3.492438,-0.08374 5.238694,-0.116918 3.788219,-0.09379 7.577164,-0.188679 11.361044,-0.401006 2.277616,-0.0836 4.556985,-0.208418 6.836559,-0.220728 1.849935,-0.01 3.70105,0.05462 5.548347,0.145877 0.949058,0.07021 2.086475,0.147798 3.038438,0.242917 0.47013,0.04697 0.938723,0.108279 1.408311,0.160407 1.144132,0.127007 2.290418,0.238164 3.429733,0.405271 1.07901,0.148654 2.185175,0.284849 3.198693,0.706198 0.08305,0.04066 0.03763,-0.01056 -0.0031,0.06139 -0.301344,0.531971 0.909172,2.698555 1.635056,-0.681115 -0.02519,-0.0054 -0.02122,-0.134275 -0.01902,-0.213325 0.01209,-0.432692 0.07643,-0.862043 0.138694,-1.289592 0.04875,-0.280158 0.08892,-0.561945 0.146246,-0.840474 0.416325,-2.0228211 1.049047,-3.9939688 1.840352,-5.9002934 0.111149,-0.227989 0.224761,-0.4547931 0.333446,-0.6839675 0.06458,-0.1361768 0.180317,-0.3164657 0.03462,-0.4506648 -0.01323,-0.012174 -0.0426,0.033936 -0.05325,0.00839 -0.357986,0.057 -0.718219,0.1014754 -1.077812,0.1466887 -0.969206,0.1284666 -1.936713,0.2831026 -2.912975,0.3460181 -0.970987,0.031391 -1.942611,0.024196 -2.913571,0.053674 -0.569619,0.024844 -1.141291,0.046478 -1.707073,0.1196936 -0.48687,0.070131 -0.96775,0.1724374 -1.455177,0.2383785 -0.374692,0.032067 -0.749911,0.038387 -1.125897,0.032225 -0.665744,-0.014049 -1.329923,0.05454 -1.993712,0.09367 -0.686946,0.052635 -1.374418,0.098774 -2.060856,0.1576562 -2.518346,0.2160218 -5.029845,0.508593 -7.55079,0.6958267 -5.625312,0.4218329 -11.25229,0.8706414 -16.893522,1.010221 -2.001364,0.027223 -3.208333,0.064418 -5.187469,0.013354 C 17.969718,6.5922349 17.181226,6.551491 16.3929,6.510933 15.726368,6.4766411 15.061653,6.4041434 14.394434,6.3880547 13.224887,6.359853 12.054298,6.4770364 10.884773,6.3892982 10.401785,6.3883722 9.9187079,6.3958413 9.4358079,6.3865492 9.0128468,6.3784106 8.5904294,6.3520242 8.1676562,6.3370184 7.8484393,6.3256889 7.5289856,6.3211169 7.2098563,6.3075411 6.7108659,6.2863163 6.2129071,6.2420967 5.712752,6.2569795 c 0,0 -0.6381856,0.466905 -0.6381856,0.466905 z" />
    <path
       style="fill:#000000;fill-opacity:1;stroke-width:1.05833;stroke-linejoin:bevel"
       id="path1036"
       d="m 51.649338,16.214495 c 0.05488,-0.235186 0.01699,-0.312108 -0.06965,-0.528108 -0.07475,-0.18638 -0.07931,-0.305729 -0.28421,-0.404234 -0.08949,-0.04302 -0.194688,-0.03915 -0.292031,-0.05873 -0.571468,0.319346 -1.197237,0.556672 -1.714405,0.95804 -0.234384,0.181903 -0.339426,0.487963 -0.48319,0.747493 -0.346083,0.62477 -0.72073,1.472548 -0.808315,2.180401 -0.112908,0.912535 0.103807,1.72513 0.265224,2.608749 0.183004,0.347209 0.309329,0.730826 0.54901,1.041626 0.684403,0.887478 1.698347,1.147605 2.751018,0.827654 0.935739,-0.284411 2.242463,-1.484252 2.794643,-1.90996 0.229921,-0.986298 0.392798,-1.176819 0.107903,-2.23575 -0.120311,-0.447184 -0.332272,-0.866167 -0.540441,-1.279826 -0.205547,-0.408453 -0.382786,-0.849632 -0.697912,-1.180959 -0.709203,-0.745659 -1.390555,-0.811192 -2.311072,-1.071942 0,0 -0.06662,0.04429 -0.06662,0.04429 v 0 c 0.275656,0.184536 0.59487,0.316606 0.826968,0.553608 0.277768,0.283635 0.461693,0.646374 0.675667,0.980768 0.243332,0.380276 0.506706,0.752078 0.695547,1.16215 0.365164,0.792967 0.609645,1.635575 0.460473,2.518889 -0.06152,0.364267 -0.268661,0.688274 -0.402992,1.032411 0.177064,-0.0019 0.628388,-0.153577 0.531196,-0.0056 -0.174128,0.26518 -0.531628,0.359522 -0.831533,0.462946 -0.931101,0.321094 -2.012207,0.08587 -2.685397,-0.652083 -0.253894,-0.278318 -0.391429,-0.643797 -0.587144,-0.965696 -0.08325,-0.411342 -0.214255,-0.815848 -0.249738,-1.234026 -0.07044,-0.830098 0.02682,-1.713524 0.328573,-2.494964 0.131723,-0.341109 0.330917,-0.653464 0.5271,-0.962038 0.15779,-0.248185 0.766612,-0.526461 0.532027,-0.703841 -0.262123,-0.198203 -0.588666,0.292304 -0.882999,0.438456 0.261982,0.01173 0.56624,0.0029 0.783881,0.180608 0.05004,0.04086 0.07523,0.105061 0.111686,0.158395 0.09823,0.143703 0.07462,0.07993 0.09515,0.223553 0,0 0.871586,-0.432324 0.871586,-0.432324 z" />
    <path
       style="fill:#000000;fill-opacity:1;stroke-width:1.05833;stroke-linejoin:bevel"
       id="path1040"
       d="m 50.047137,20.437588 c 0.0067,0.05555 0.0051,0.112765 0.02019,0.166655 0.09161,0.327509 0.404471,0.908404 0.636926,1.151228 0.05378,0.05617 0.124844,0.09276 0.187267,0.139133 0.06119,0.01446 0.127103,0.07106 0.183555,0.04338 0.654161,-0.320714 1.292214,-0.677013 1.906817,-1.068225 0.06695,-0.04262 0.07404,-0.140549 0.106191,-0.213112 0.04283,-0.09665 0.174913,-0.387044 0.135956,-0.511799 -0.0218,-0.06981 -0.105674,-0.101139 -0.158512,-0.151709 -0.07427,-0.02949 -0.148534,-0.05897 -0.222803,-0.08846 0,0 -0.07278,0.0332 -0.07278,0.0332 v 0 c -0.148095,0.130206 -0.29619,0.260411 -0.444286,0.390616 -0.145838,0.138681 -0.299156,0.269901 -0.43752,0.416044 -0.106188,0.11216 -0.196546,0.238315 -0.294817,0.357472 -0.08073,0.0987 -0.154604,0.203413 -0.242179,0.296086 -0.06875,0.07275 -0.315468,0.24196 -0.225263,0.198572 2.284174,-1.098679 2.100302,-1.027353 1.440233,-0.803933 -0.0661,-0.01785 -0.138015,-0.0211 -0.198306,-0.05355 -0.44591,-0.240014 -0.493135,-0.776203 -0.704982,-1.181106 0,0 -1.615686,0.87951 -1.615686,0.87951 z" />
    <path
       style="fill:#000000;fill-opacity:1;stroke-width:1.05833;stroke-linejoin:bevel"
       id="path1042"
       d="m 49.770341,18.141172 c 0.01101,0.03651 -0.0046,0.103048 0.033,0.109527 0.04249,0.0073 0.703096,-0.08416 0.743043,-0.08949 0,0 0.07114,-0.0366 0.07114,-0.0366 v 0 c 0.01998,-0.01805 0.708837,-0.639436 0.724067,-0.657683 0.03138,-0.0376 0.02201,-0.09544 0.033,-0.143157 0,0 -1.604248,0.817406 -1.604248,0.817406 z" />
    <path
       style="fill:#000000;fill-opacity:1;stroke-width:1.05833;stroke-linejoin:bevel"
       id="path1044"
       d="m 51.082169,18.118689 c 0.05723,0.308638 -0.02854,0.230967 0.377523,0.181981 0,0 1.131335,-0.582039 1.131335,-0.582039 v 0 c 0.337645,-0.311586 0.330128,-0.204179 0.345352,-0.559808 0,0 -1.85421,0.959866 -1.85421,0.959866 z" />
    <path
       style="fill:#000000;fill-opacity:1;stroke-width:1.05833;stroke-linejoin:bevel"
       id="path1046"
       d="m 50.708664,23.247925 c -0.0091,0.152334 -0.03187,0.304468 -0.02722,0.457001 0.01249,0.408891 0.141065,1.079977 0.185664,1.447762 0.04438,0.365981 0.07189,0.73382 0.111011,1.1004 0.209156,1.959714 0.09423,0.603238 0.236537,2.573711 0.08159,1.579788 0.16233,3.159869 0.224258,4.740572 0.0067,0.298299 0.02522,0.590743 0.114973,0.875694 0.0055,0.01291 0.02911,0.07642 0.04546,0.08891 0.02146,0.0164 0.08067,0.01879 0.101251,0.0075 0.49756,-0.27304 1.005798,-0.529657 1.481299,-0.839515 0.09802,-0.06388 -0.225359,0.06301 -0.338037,0.09451 -0.09125,0.02738 -0.182499,0.05476 -0.273749,0.08214 0,0 -0.167285,0.08815 -0.167285,0.08815 v 0 c -0.08631,0.06318 -0.172619,0.126365 -0.258929,0.189545 -0.111639,0.06041 -0.446707,0.24134 -0.334915,0.181221 0.486918,-0.261858 0.974005,-0.523399 1.460288,-0.786429 0.05698,-0.03082 0.05177,-0.03867 0.01013,-0.07663 -0.134117,-0.224509 -0.200023,-0.483343 -0.286274,-0.727829 -0.420555,-1.439021 -0.654465,-2.926032 -0.825582,-4.413202 -0.152847,-1.663655 -0.102791,-0.907934 -0.17912,-2.602246 -0.01699,-0.37708 -0.04272,-0.753918 -0.04896,-1.131329 -0.0085,-0.517017 0.04812,-1.034675 0.02207,-1.551106 -0.0069,-0.136933 -0.03941,-0.271369 -0.05911,-0.407054 0,0 -1.193745,0.608242 -1.193745,0.608242 z" />
    <path
       style="fill:#000000;fill-opacity:1;stroke-width:1.05833;stroke-linejoin:bevel"
       id="path1048"
       d="m 18.763942,12.271634 c -0.03411,0.140875 -0.09787,0.391958 -0.105388,0.509323 -0.0094,0.147058 0.04231,0.864742 0.05022,0.970905 0.04738,0.63614 0.044,0.550971 0.116283,1.191556 0.0661,0.468859 0.122579,0.942549 0.220306,1.406448 0.01734,0.08233 0.09119,0.426863 0.186668,0.499447 0.0889,0.06758 0.210086,0.07578 0.315129,0.113678 0.207064,-0.01291 0.414759,-0.01807 0.621192,-0.03874 0.798272,-0.07995 1.58898,-0.232994 2.383982,-0.338398 0.762573,-0.101105 0.680055,-0.08487 1.407662,-0.137769 0.42796,-0.02994 0.855421,-8.73e-4 1.282725,0.01855 0.08174,0.0037 0.163547,0.0057 0.245314,0.0087 0.05228,0.0019 0.110382,0.03018 0.156835,0.0061 0.520363,-0.269613 1.015921,-0.584621 1.523881,-0.876931 0.01286,-0.19336 0.03733,-0.4197 0.0059,-0.611391 -0.02638,-0.160803 -0.08345,-0.315084 -0.120637,-0.473735 -0.04515,-0.192638 -0.08245,-0.387047 -0.126354,-0.579974 -0.0443,-0.19468 -0.04523,-0.406132 -0.138245,-0.582801 -0.08271,-0.157097 -0.24679,-0.25529 -0.370186,-0.382935 -0.09987,-0.100723 -0.199747,-0.201445 -0.29962,-0.302168 0,0 -0.109655,0.05991 -0.109655,0.05991 v 0 c -0.02096,0.16541 -0.04191,0.33082 -0.06286,0.49623 -0.04559,0.215635 -0.121539,0.427032 -0.136783,0.646907 -0.01447,0.20864 0.03745,0.416695 0.04856,0.625541 0.02671,0.501924 0.0339,0.682032 -0.02904,1.164671 -0.01501,0.115126 -0.02974,0.231847 -0.06706,0.341787 -0.02589,0.07627 -0.08009,0.139779 -0.120133,0.209668 0.433049,-0.232885 0.875488,-0.449094 1.299147,-0.698656 0.0551,-0.03246 -0.123135,0.03821 -0.186873,0.04345 -0.08446,0.0069 -0.169381,-0.0079 -0.254116,-0.0072 -0.489208,0.0043 -0.976752,0.05727 -1.463785,0.09659 -0.761171,0.08363 -0.686664,0.07067 -1.47197,0.177464 -0.736313,0.100134 -1.475613,0.231219 -2.221042,0.239959 -0.149318,0.0017 -0.298183,-0.01683 -0.447275,-0.02525 -0.07136,-0.01623 -0.149692,-0.01391 -0.214085,-0.04869 -0.137066,-0.07403 -0.201705,-0.267369 -0.248648,-0.393876 -0.15891,-0.428244 -0.245041,-0.879947 -0.334561,-1.326119 -0.08193,-0.590063 -0.09261,-0.581357 -0.127778,-1.173829 -0.01065,-0.179447 -0.01405,-0.359251 -0.02069,-0.538892 -0.0054,-0.145309 0.005,-0.291977 -0.01535,-0.435955 -0.01506,-0.106587 -0.08625,-0.270804 -0.132336,-0.383148 0,0 -1.039323,0.529562 -1.039323,0.529562 z" />
    <path
       style="fill:#000000;fill-opacity:1;stroke-width:1.05833;stroke-linejoin:bevel"
       id="path1050"
       d="m 22.309945,15.211912 c 0.0451,0.07053 0.07946,0.14922 0.135303,0.211597 0.08283,0.09252 0.17921,0.172584 0.277062,0.249039 0.536898,0.419493 0.592375,0.401978 1.317875,0.722811 0.944553,0.417701 1.418459,0.598175 2.414319,1.000066 1.614574,0.649624 1.612036,0.661151 3.329341,1.295737 0.701664,0.259283 1.413986,0.4901 2.109893,0.764466 0.692653,0.273083 1.364602,0.596405 2.054149,0.877236 1.081484,0.440455 2.977229,1.143065 4.0821,1.557464 2.262486,0.783968 1.496494,0.549382 3.752464,1.211481 1.452808,0.426381 1.660398,0.495886 3.094106,0.820709 0.721596,0.163486 1.595345,0.331853 2.331,0.47733 0.805569,0.173339 1.632906,0.265415 2.427235,0.491064 0.01312,-0.04244 0.06585,0.03867 0.08939,0.0193 0.02252,-0.01854 -0.117927,-0.06579 0.0461,-0.0113 0.04531,0.01505 0.08833,0.03628 0.132501,0.05442 0.08994,0.02891 0.179874,0.05782 0.269812,0.08673 0.614801,0.204513 1.236376,0.402377 1.869752,0.542373 0.204671,0.04524 1.23676,0.234771 1.447064,0.273759 0.965743,0.156897 1.938769,0.261459 2.907001,0.400644 1.117537,0.170033 0.230143,0.16547 2.410611,-1.081084 0.630801,-0.411138 0.479605,-0.311389 -1.790959,1.034358 -0.06792,0.04026 0.140306,-0.07301 0.213608,-0.102333 0.115028,-0.04602 0.231305,-0.08994 0.350597,-0.123385 0.333264,-0.09343 0.542378,-0.11342 0.883338,-0.163902 0.687327,-0.08504 1.372092,-0.191516 2.038213,-0.383505 0.559001,-0.183695 1.113364,-0.379171 1.663157,-0.588714 0.953204,-0.399554 1.905929,-0.86891 2.71136,-1.520238 0.620287,-0.473106 -0.04165,0.03566 -1.871731,0.972194 -0.007,0.0036 -0.0096,-0.01313 -0.01638,-0.01704 -0.0099,-0.0056 -0.02098,-0.01121 -0.03233,-0.01076 -0.01304,5.03e-4 -0.03947,0.02231 -0.0492,0.02954 0.391313,-0.220117 0.799092,-0.409613 1.200401,-0.610932 0,0 -0.571627,0.448392 -0.571627,0.448392 v 0 c 0.353423,-0.174793 0.707917,-0.347435 1.060268,-0.52438 0.08909,-0.04474 0.179919,-0.08701 0.263967,-0.14063 0.01913,-0.01221 0.02752,-0.03609 0.04129,-0.05414 0.01275,-0.03739 0.03276,-0.311419 -0.0375,-0.280653 -0.668095,0.292575 -1.310291,0.641069 -1.963421,0.965679 -0.01098,0.0055 -0.01857,0.016 -0.02786,0.024 -0.548553,0.40506 -1.320641,0.754738 1.531461,-0.860847 0.06214,-0.0352 -0.119607,0.07821 -0.181499,0.113843 -0.212495,0.122348 -0.281278,0.146933 -0.511863,0.252665 -0.518588,0.208259 -1.055092,0.359079 -1.583076,0.541037 -0.691962,0.248864 -1.399064,0.447526 -2.136494,0.504034 -0.353738,0.04092 -0.468083,0.05714 -0.81279,0.08614 -0.02384,0.002 -0.367276,0.01845 -0.407643,0.04024 -1.424673,0.769295 -1.39916,0.75452 -2.101356,1.206964 0.647084,-0.367503 1.289429,-0.743475 1.941248,-1.102507 0.01228,-0.0068 -0.0019,0.03102 -0.01257,0.04017 -0.01111,0.0096 -0.02879,0.0056 -0.04329,0.0079 -0.134847,0.02078 -0.271277,0.02647 -0.407183,0.03661 -1.057061,0.04524 -2.118976,-0.006 -3.163099,-0.18333 -0.234834,-0.04487 -0.471315,-0.08183 -0.704495,-0.134601 -0.798076,-0.18062 -1.575179,-0.456326 -2.299955,-0.836577 -0.06163,-0.03964 -0.124761,-0.07704 -0.184896,-0.118917 -0.127158,-0.08854 -0.117522,-0.190783 -0.297598,-0.161196 -1.004932,0.05292 -2.012685,0.01547 -3.015522,-0.05945 C 47.37491,23.39843 47.057196,23.385371 45.911225,23.202975 43.469454,22.814334 41.069,22.206534 38.725035,21.421109 35.455251,20.297336 37.862216,21.147696 34.564354,19.91961 33.841541,19.650443 33.10668,19.41271 32.392268,19.121981 31.734786,18.85442 31.096233,18.542446 30.45134,18.245826 c -1.339803,-0.616243 -1.783893,-0.8407 -3.068045,-1.466217 -0.406315,-0.209212 -0.81465,-0.414545 -1.218945,-0.627637 -0.720031,-0.379507 -1.469406,-0.766188 -2.08196,-1.314111 -0.08894,-0.07956 -0.154781,-0.182434 -0.242377,-0.263475 -0.06553,-0.06063 -0.14334,-0.106458 -0.215011,-0.159687 0,0 -1.315029,0.797223 -1.315029,0.797223 z" />
  </g>
</svg>
